# xmcd
#
# Track frame offsets:
#  150
#  15325
#  28372
#  42777
#  53735
#  66882
#  82410
#  99117
#  111777
#  129355
#  141675
#  151460
#  168647
#  183812
#  199755
#  214240
#  227612
#  244795
#  258877
#  268702
#  280870
#  288362
#  311777
#  323775
#  340555
#
# Disc length: 4713 seconds
#
# Revision: 0
# Processed by: cddbd v1.5.1PL0 Copyright (c) Steve Scherf et al.
# Submitted via: Collectorz.com_Music_Collector 6.9
#
DISCID=6c126719
DTITLE=Friedman, Kinky - They Ain't Makin' Jews Like Jesus Anymore
DYEAR=2005
DGENRE=General Country
TTITLE0=They Ain't Makin' Jews Like Jesus Anymore
TTITLE1=Rapid City South Dakota
TTITLE2=Popeye The Sailor Man
TTITLE3=Homo Erectus
TTITLE4=Lover Please
TTITLE5=Wild Man From Borneo
TTITLE6=Before All Hell Breaks Loose
TTITLE7=Somethin's Wrong With The Beaver
TTITLE8=When The Lord Closes The Door (He Opens A Little Window)
TTITLE9=Miss Nickelodeon
TTITLE10=Autograph
TTITLE11=Sold American
TTITLE12=Twinkle
TTITLE13=Ahab The Arab
TTITLE14=Dear Abbie
TTITLE15=Kinky
TTITLE16=Lady Yesterday
TTITLE17=Catfish
TTITLE18=Men's Room, L.A.
TTITLE19=Bananas And Cream
TTITLE20=Ol' Ben Lucas
TTITLE21=Ballad Of Ira Hayes
TTITLE22=Waitret Please Waitret
TTITLE23=Kasey
TTITLE24=If I Never Have Another Hit
EXTD=
EXTT0=
EXTT1=
EXTT2=
EXTT3=
EXTT4=
EXTT5=
EXTT6=
EXTT7=
EXTT8=
EXTT9=
EXTT10=
EXTT11=
EXTT12=
EXTT13=
EXTT14=
EXTT15=
EXTT16=
EXTT17=
EXTT18=
EXTT19=
EXTT20=
EXTT21=
EXTT22=
EXTT23=
EXTT24=
PLAYORDER=
